<svg xmlns="http://www.w3.org/2000/svg" width="1680" height="791" style="cursor: move;"><g transform="translate(19.767182262665187,-19.873267243217583) scale(0.9917167307382939)"><path class="link" marker-end="" d="M684,129.5, 876,297.5" style="stroke-width: 0.95; stroke-opacity: 0.48; stroke: rgb(80, 80, 80);"></path><path class="link" marker-end="" d="M684,129.5, 876,377.5" style="stroke-width: 0.95; stroke-opacity: 0.48; stroke: rgb(80, 80, 80);"></path><path class="link" marker-end="" d="M684,129.5, 876,457.5" style="stroke-width: 0.95; stroke-opacity: 0.48; stroke: rgb(80, 80, 80);"></path><path class="link" marker-end="" d="M684,191.5, 876,297.5" style="stroke-width: 0.95; stroke-opacity: 0.48; stroke: rgb(80, 80, 80);"></path><path class="link" marker-end="" d="M684,191.5, 876,377.5" style="stroke-width: 0.95; stroke-opacity: 0.48; stroke: rgb(80, 80, 80);"></path><path class="link" marker-end="" d="M684,191.5, 876,457.5" style="stroke-width: 0.95; stroke-opacity: 0.48; stroke: rgb(80, 80, 80);"></path><path class="link" marker-end="" d="M684,253.5, 876,297.5" style="stroke-width: 0.95; stroke-opacity: 0.48; stroke: rgb(80, 80, 80);"></path><path class="link" marker-end="" d="M684,253.5, 876,377.5" style="stroke-width: 0.95; stroke-opacity: 0.48; stroke: rgb(80, 80, 80);"></path><path class="link" marker-end="" d="M684,253.5, 876,457.5" style="stroke-width: 0.95; stroke-opacity: 0.48; stroke: rgb(80, 80, 80);"></path><path class="link" marker-end="" d="M684,315.5, 876,297.5" style="stroke-width: 0.95; stroke-opacity: 0.48; stroke: rgb(80, 80, 80);"></path><path class="link" marker-end="" d="M684,315.5, 876,377.5" style="stroke-width: 0.95; stroke-opacity: 0.48; stroke: rgb(80, 80, 80);"></path><path class="link" marker-end="" d="M684,315.5, 876,457.5" style="stroke-width: 0.95; stroke-opacity: 0.48; stroke: rgb(80, 80, 80);"></path><path class="link" marker-end="" d="M684,377.5, 876,297.5" style="stroke-width: 0.95; stroke-opacity: 0.48; stroke: rgb(80, 80, 80);"></path><path class="link" marker-end="" d="M684,377.5, 876,377.5" style="stroke-width: 0.95; stroke-opacity: 0.48; stroke: rgb(80, 80, 80);"></path><path class="link" marker-end="" d="M684,377.5, 876,457.5" style="stroke-width: 0.95; stroke-opacity: 0.48; stroke: rgb(80, 80, 80);"></path><path class="link" marker-end="" d="M684,439.5, 876,297.5" style="stroke-width: 0.95; stroke-opacity: 0.48; stroke: rgb(80, 80, 80);"></path><path class="link" marker-end="" d="M684,439.5, 876,377.5" style="stroke-width: 0.95; stroke-opacity: 0.48; stroke: rgb(80, 80, 80);"></path><path class="link" marker-end="" d="M684,439.5, 876,457.5" style="stroke-width: 0.95; stroke-opacity: 0.48; stroke: rgb(80, 80, 80);"></path><path class="link" marker-end="" d="M684,501.5, 876,297.5" style="stroke-width: 0.95; stroke-opacity: 0.48; stroke: rgb(80, 80, 80);"></path><path class="link" marker-end="" d="M684,501.5, 876,377.5" style="stroke-width: 0.95; stroke-opacity: 0.48; stroke: rgb(80, 80, 80);"></path><path class="link" marker-end="" d="M684,501.5, 876,457.5" style="stroke-width: 0.95; stroke-opacity: 0.48; stroke: rgb(80, 80, 80);"></path><path class="link" marker-end="" d="M684,563.5, 876,297.5" style="stroke-width: 0.95; stroke-opacity: 0.48; stroke: rgb(80, 80, 80);"></path><path class="link" marker-end="" d="M684,563.5, 876,377.5" style="stroke-width: 0.95; stroke-opacity: 0.48; stroke: rgb(80, 80, 80);"></path><path class="link" marker-end="" d="M684,563.5, 876,457.5" style="stroke-width: 0.95; stroke-opacity: 0.48; stroke: rgb(80, 80, 80);"></path><path class="link" marker-end="" d="M684,625.5, 876,297.5" style="stroke-width: 0.95; stroke-opacity: 0.48; stroke: rgb(80, 80, 80);"></path><path class="link" marker-end="" d="M684,625.5, 876,377.5" style="stroke-width: 0.95; stroke-opacity: 0.48; stroke: rgb(80, 80, 80);"></path><path class="link" marker-end="" d="M684,625.5, 876,457.5" style="stroke-width: 0.95; stroke-opacity: 0.48; stroke: rgb(80, 80, 80);"></path><path class="link" marker-end="" d="M876,217.5, 1068,377.5" style="stroke-width: 0.95; stroke-opacity: 0.48; stroke: rgb(80, 80, 80);"></path><path class="link" marker-end="" d="M876,297.5, 1068,377.5" style="stroke-width: 0.95; stroke-opacity: 0.48; stroke: rgb(80, 80, 80);"></path><path class="link" marker-end="" d="M876,377.5, 1068,377.5" style="stroke-width: 0.95; stroke-opacity: 0.48; stroke: rgb(80, 80, 80);"></path><path class="link" marker-end="" d="M876,457.5, 1068,377.5" style="stroke-width: 0.95; stroke-opacity: 0.48; stroke: rgb(80, 80, 80);"></path><path class="link" marker-end="" d="M684,129.5, 876,537.5" style="stroke-width: 0.95; stroke-opacity: 0.48; stroke: rgb(80, 80, 80);"></path><path class="link" marker-end="" d="M684,191.5, 876,537.5" style="stroke-width: 0.95; stroke-opacity: 0.48; stroke: rgb(80, 80, 80);"></path><path class="link" marker-end="" d="M684,253.5, 876,537.5" style="stroke-width: 0.95; stroke-opacity: 0.48; stroke: rgb(80, 80, 80);"></path><path class="link" marker-end="" d="M684,315.5, 876,537.5" style="stroke-width: 0.95; stroke-opacity: 0.48; stroke: rgb(80, 80, 80);"></path><path class="link" marker-end="" d="M684,377.5, 876,537.5" style="stroke-width: 0.95; stroke-opacity: 0.48; stroke: rgb(80, 80, 80);"></path><path class="link" marker-end="" d="M684,439.5, 876,537.5" style="stroke-width: 0.95; stroke-opacity: 0.48; stroke: rgb(80, 80, 80);"></path><path class="link" marker-end="" d="M684,501.5, 876,537.5" style="stroke-width: 0.95; stroke-opacity: 0.48; stroke: rgb(80, 80, 80);"></path><path class="link" marker-end="" d="M684,563.5, 876,537.5" style="stroke-width: 0.95; stroke-opacity: 0.48; stroke: rgb(80, 80, 80);"></path><path class="link" marker-end="" d="M684,625.5, 876,537.5" style="stroke-width: 0.95; stroke-opacity: 0.48; stroke: rgb(80, 80, 80);"></path><path class="link" marker-end="" d="M876,537.5, 1068,377.5" style="stroke-width: 0.95; stroke-opacity: 0.48; stroke: rgb(80, 80, 80);"></path><circle r="18" class="node" id="0_0" cx="684" cy="129.5" style="fill: rgb(255, 255, 255); stroke: rgb(51, 51, 51);"></circle><circle r="18" class="node" id="0_1" cx="684" cy="191.5" style="fill: rgb(255, 255, 255); stroke: rgb(51, 51, 51);"></circle><circle r="18" class="node" id="0_2" cx="684" cy="253.5" style="fill: rgb(255, 255, 255); stroke: rgb(51, 51, 51);"></circle><circle r="18" class="node" id="0_3" cx="684" cy="315.5" style="fill: rgb(255, 255, 255); stroke: rgb(51, 51, 51);"></circle><circle r="18" class="node" id="0_4" cx="684" cy="377.5" style="fill: rgb(255, 255, 255); stroke: rgb(51, 51, 51);"></circle><circle r="18" class="node" id="0_5" cx="684" cy="439.5" style="fill: rgb(255, 255, 255); stroke: rgb(51, 51, 51);"></circle><circle r="18" class="node" id="0_6" cx="684" cy="501.5" style="fill: rgb(255, 255, 255); stroke: rgb(51, 51, 51);"></circle><circle r="18" class="node" id="0_7" cx="684" cy="563.5" style="fill: rgb(255, 255, 255); stroke: rgb(51, 51, 51);"></circle><circle r="18" class="node" id="0_8" cx="684" cy="625.5" style="fill: rgb(255, 255, 255); stroke: rgb(51, 51, 51);"></circle><circle r="18" class="node" id="1_0" cx="876" cy="217.5" style="fill: rgb(255, 255, 255); stroke: rgb(51, 51, 51);"></circle><circle r="18" class="node" id="1_1" cx="876" cy="297.5" style="fill: rgb(255, 255, 255); stroke: rgb(51, 51, 51);"></circle><circle r="18" class="node" id="1_2" cx="876" cy="377.5" style="fill: rgb(255, 255, 255); stroke: rgb(51, 51, 51);"></circle><circle r="18" class="node" id="1_3" cx="876" cy="457.5" style="fill: rgb(255, 255, 255); stroke: rgb(51, 51, 51);"></circle><circle r="18" class="node" id="1_4" cx="876" cy="537.5" style="fill: rgb(255, 255, 255); stroke: rgb(51, 51, 51);"></circle><circle r="18" class="node" id="2_0" cx="1068" cy="377.5" style="fill: rgb(255, 255, 255); stroke: rgb(51, 51, 51);"></circle><text class="text" dy=".35em" x="649" y="681.5" style="font-size: 12px;">Input Layer ∈ ℝ⁹</text><text class="text" dy=".35em" x="841" y="681.5" style="font-size: 12px;">Hidden Layer ∈ ℝ⁵</text><text class="text" dy=".35em" x="1033" y="681.5" style="font-size: 12px;">Output Layer ∈ ℝ¹</text></g><defs><marker id="arrow" viewBox="0 -5 10 10" markerWidth="7" markerHeight="7" orient="auto" refX="62.4"><path d="M0,-5L10,0L0,5" style="stroke: rgb(80, 80, 80); fill: rgb(80, 80, 80);"></path></marker></defs></svg>